#!OML:ASF H:\Terrain\Patient Classification 1\Takeo\Monday\TakeoMonday.ASF
:FULLY-SPECIFIED
:DEGREES
469
root 17.9153 16.9454 -2.34482 -72.9101 -85.0051 70.0736
lowerback 8.89219 -1.4775 -0.498916
upperback 4.15364 -2.12227 2.49821
thorax -0.56497 -1.1571 3.05562
lowerneck -7.12899 15.9959 6.4351
upperneck 4.42036 21.4571 -8.67793
head 4.06921 10.4057 -2.12331
rclavicle 9.34288e-015 -6.36111e-015
rhumerus 1.51283 -34.7484 -34.0275
rradius 62.8109
rwrist -30.6579
rhand -48.1703 17.4228
rfingers 7.12502
rthumb -20.8321 -11.4788
lclavicle 9.34288e-015 -6.36111e-015
lhumerus -19.1817 -1.26472 71.6891
lradius 88.0072
lwrist 24.5053
lhand -28.0789 19.4625
lfingers 7.12502
lthumb -1.46211 49.4373
rfemur -14.1629 -5.32076 11.2142
rtibia 46.1988
rfoot -24.2895 -10.0061
rtoes -10.9202
lfemur -11.9237 19.5832 -12.4334
ltibia 42.7899
lfoot -20.2268 25.3428
ltoes 1.61472
470
root 17.9301 16.9468 -2.31294 -66.5781 -85.4508 63.9629
lowerback 8.76 -1.52961 0.139362
upperback 4.06468 -2.13856 2.69747
thorax -0.598838 -1.15818 2.90141
lowerneck -6.99444 16.0643 6.37184
upperneck 4.18641 21.5488 -8.74341
head 3.98357 10.457 -2.14635
rclavicle -2.40529e-014 -4.77083e-015
rhumerus 2.6742 -35.0221 -35.323
rradius 62.2796
rwrist -30.5178
rhand -48.3742 17.5101
rfingers 7.12502
rthumb -21.0279 -11.3699
lclavicle -2.40529e-014 -4.77083e-015
lhumerus -19.0986 -0.942358 71.4823
lradius 88.1465
lwrist 24.579
lhand -27.606 19.6995
lfingers 7.12502
lthumb -1.00535 49.6768
rfemur -14.4525 -5.36099 11.8394
rtibia 46.1578
rfoot -23.9673 -10.5196
rtoes -11.661
lfemur -12.2072 19.5312 -11.9771
ltibia 42.3729
lfoot -19.6612 25.3794
ltoes 2.16398
471
root 17.9386 16.949 -2.28799 -62.1479 -85.176 59.3584
lowerback 8.9311 -1.32238 0.213464
upperback 4.15249 -1.85811 2.41206
thorax -0.628429 -1.01372 2.54276
lowerneck -7.37265 15.9236 7.14484
upperneck 4.25618 21.2739 -8.77618
head 4.1275 10.3171 -2.23843
rclavicle -4.17448e-015 1.59028e-015
rhumerus 2.67716 -35.8834 -36.238
rradius 61.8479
rwrist -30.0031
rhand -48.7039 17.3147
rfingers 7.12502
rthumb -21.3446 -11.5298
lclavicle -4.17448e-015 1.59028e-015
lhumerus -18.4859 -1.6529 70.9669
lradius 88.2539
lwrist 24.5611
lhand -27.2722 19.2996
lfingers 7.12502
lthumb -0.683018 49.2783
rfemur -14.2429 -5.44923 11.6354
rtibia 46.1192
rfoot -23.9121 -10.7666
rtoes -11.4859
lfemur -12.159 19.6548 -12.1135
ltibia 42.2982
lfoot -18.7951 25.36
ltoes -0.923391
472
root 17.9413 16.9607 -2.25944 -58.5711 -84.3487 55.513
lowerback 9.1622 -1.11953 -0.235268
upperback 4.22398 -1.6241 2.13165
thorax -0.687659 -0.898423 2.48893
lowerneck -7.59609 15.6611 7.64004
upperneck 4.14479 20.857 -8.88736
head 4.15997 10.1089 -2.35791
rclavicle -9.54166e-015 -2.22639e-014
rhumerus 2.34091 -36.5099 -36.6593
rradius 61.6313
rwrist -29.8719
rhand -48.8592 17.475
rfingers 7.12502
rthumb -21.4938 -11.3525
lclavicle -9.54166e-015 -2.22639e-014
lhumerus -17.9223 -2.33581 70.6404
lradius 88.2918
lwrist 24.678
lhand -26.8226 19.5023
lfingers 7.12502
lthumb -0.248774 49.4819
rfemur -13.7068 -5.69354 10.8778
rtibia 46.0482
rfoot -24.0986 -10.8474
rtoes -10.4251
lfemur -12.1933 19.64 -12.8468
ltibia 42.2824
lfoot -16.1828 26.1526
ltoes -9.11198
473
root 17.9462 16.966 -2.22154 -53.2402 -83.8602 50.1922
lowerback 9.08967 -1.12814 -0.374818
upperback 4.19225 -1.64366 2.31319
thorax -0.670022 -0.91125 2.75599
lowerneck -7.33338 15.5216 7.33414
upperneck 3.74551 20.701 -9.09207
head 3.97722 10.0361 -2.43229
rclavicle 1.5704e-014 -2.38542e-014
rhumerus 3.04777 -36.5883 -37.2954
rradius 61.2127
rwrist -29.8628
rhand -48.9939 17.6083
rfingers 7.12502
rthumb -21.6231 -11.2043
lclavicle 1.5704e-014 -2.38542e-014
lhumerus -17.767 -2.28156 70.6776
lradius 88.3695
lwrist 24.8509
lhand -26.1876 19.9213
lfingers 7.12502
lthumb 0.364576 49.9007
rfemur -13.4657 -6.06333 10.6593
rtibia 45.937
rfoot -24.0553 -11.1109
rtoes -10.1011
lfemur -12.1385 19.2799 -13.0958
ltibia 42.3281
lfoot -17.9956 24.5997
ltoes -3.39081
